<?xml version="1.0" encoding="UTF-8"?>
<svg width="100pt" height="100pt" version="1.1" viewBox="0 0 100 100" xmlns="http://www.w3.org/2000/svg">
 <path d="m76.898 48.602-6.8008-6.8008c-0.80078-0.80078-2-0.80078-2.8008 0l-1.3984 1.3984 4.8008 4.8008h-23.5c-1.1016 0-2 0.89844-2 2s0.89844 2 2 2h23.5l-4.8008 4.8008 1.3984 1.3984c0.80078 0.80078 2 0.80078 2.8008 0l6.8008-6.8008c0.80078-0.79688 0.80078-2 0-2.7969zm-39.699 22.797c-6 0-10.898-4.6992-11.102-10.699l0.003906-21.398c0.19922-6 5.1016-10.699 11.102-10.699h12.898c5.8984 0 10.602 4.8008 10.699 10.699 0 1.1992-0.89844 2.1016-2.1016 2.1016-1.1992 0-2.1016-0.89844-2.1016-2.1016 0-3.6016-2.8984-6.5-6.5-6.5h-12.898c-3.6016 0-6.6992 2.8008-6.8984 6.5v21.398c0.19922 3.6016 3.1992 6.5 6.8984 6.5h12.898c3.6016 0 6.5-2.8984 6.5-6.5 0-1.1992 0.89844-2.1016 2.1016-2.1016 1.1992 0 2.1016 0.89844 2.1016 2.1016 0 5.8984-4.8008 10.699-10.699 10.699z" fill="#f9dfba"/>
</svg>
